<svg width="1052" height="789" viewBox="0 0 1052 789" fill="none" xmlns="http://www.w3.org/2000/svg">
<path d="M108.29 641.654C224.141 641.654 339.927 641.654 455.779 641.654C571.038 641.654 686.298 641.654 801.492 641.654C866.519 641.654 931.48 641.654 996.507 641.654C997.756 641.654 997.756 639.682 996.507 639.682C880.655 639.682 764.869 639.682 649.018 639.682C533.758 639.682 418.498 639.682 303.304 639.682C238.278 639.682 173.317 639.682 108.29 639.682C107.041 639.682 107.041 641.654 108.29 641.654Z" fill="#E8E8E8"/>
<path d="M353.472 638.893C346.765 635.802 341.045 630.871 337.231 624.493C335.456 621.535 333.944 618.181 333.155 614.828C332.432 611.475 333.747 608.056 337.692 608.582C340.256 608.911 342.294 610.62 344.135 612.198C344.53 611.672 344.924 611.146 345.319 610.62C341.045 607.859 337.692 604.045 335.653 599.377C334.273 596.155 331.051 585.964 336.574 584.978C337.231 584.846 337.429 584.057 337.166 583.531C331.906 572.682 330.656 560.584 329.539 548.749C329.013 543.095 328.487 536.257 332.892 531.917C338.086 526.657 345.253 530.339 349.592 534.81C357.68 543.161 361.888 555.061 366.161 565.647C370.632 576.759 374.512 588.068 377.339 599.64C380.561 613.053 382.27 626.795 381.547 640.536C381.481 641.786 383.454 641.786 383.519 640.536C384.966 612.395 376.484 585.109 365.767 559.467C361.362 548.947 356.365 535.402 345.976 529.353C341.965 527.052 337.1 526.394 333.155 529.156C329.144 531.983 327.632 536.98 327.369 541.648C327.04 548.815 328.289 556.376 329.407 563.412C330.525 570.71 332.366 577.877 335.588 584.517C335.785 584.057 335.982 583.531 336.179 583.071C330.393 584.123 331.577 592.473 332.695 596.484C334.47 603.059 338.744 608.648 344.464 612.33C345.384 612.921 346.502 611.475 345.647 610.752C342.491 608.122 338.481 605.163 334.207 607.07C329.67 609.108 330.919 614.368 332.234 618.116C335.653 628.044 343.149 636.197 352.617 640.536C353.603 641.128 354.655 639.419 353.472 638.893Z" fill="#E8E8E8"/>
<path d="M374.446 581.69C372.342 565.976 373 550.59 377.931 535.468C380.298 528.17 382.796 520.937 385.229 513.705C387.202 507.853 390.686 497.004 399.037 502.067C405.02 505.683 406.138 515.283 407.518 521.529C409.228 529.156 410.411 536.849 411.135 544.673C412.515 559.401 412.318 574.326 410.74 589.054C408.899 606.412 405.283 623.573 400.352 640.273C400.023 641.523 401.864 641.983 402.258 640.799C411.792 608.385 416.592 574.129 412.647 540.465C411.726 532.312 410.28 524.225 408.307 516.335C406.795 510.417 405.217 502.987 399.234 499.963C394.303 497.53 389.569 499.897 386.939 504.368C385.426 506.932 384.572 509.891 383.585 512.653C382.139 516.992 380.692 521.266 379.246 525.605C376.353 534.284 373.263 542.832 372.079 551.971C370.83 561.834 371.224 571.828 372.539 581.69C372.605 582.939 374.578 582.939 374.446 581.69Z" fill="#E8E8E8"/>
<path d="M334.93 530.668C353.866 564.398 368.792 601.086 372.211 640.01C372.342 641.26 374.315 641.26 374.183 640.01C370.698 600.758 355.773 563.806 336.64 529.682C336.048 528.564 334.339 529.55 334.93 530.668Z" fill="#E8E8E8"/>
<path d="M395.289 501.146C396.867 512.653 396.275 524.29 395.815 535.862C395.355 547.237 394.894 558.612 394.434 570.052C393.514 593.196 392.922 616.538 388.648 639.353C388.451 640.602 390.292 641.128 390.555 639.879C394.829 616.866 395.486 593.394 396.407 570.052C396.867 558.217 397.393 546.382 397.853 534.613C398.313 523.304 398.774 511.929 397.196 500.686C397.064 499.371 395.157 499.963 395.289 501.146Z" fill="#E8E8E8"/>
<path d="M376.419 534.35C384.769 545.593 390.752 558.349 393.908 571.959C394.171 573.208 396.078 572.682 395.815 571.433C392.593 557.625 386.61 544.673 378.128 533.298C377.405 532.312 375.695 533.298 376.419 534.35Z" fill="#E8E8E8"/>
<path d="M407.781 520.674C402.456 530.339 398.248 540.531 395.157 551.182C394.829 552.431 396.735 552.957 397.064 551.708C400.089 541.254 404.297 531.194 409.491 521.66C410.083 520.608 408.373 519.556 407.781 520.674Z" fill="#E8E8E8"/>
<path d="M336.377 584.78C350.25 590.435 361.756 600.758 369.055 613.842C369.646 614.96 371.356 613.973 370.764 612.856C363.203 599.311 351.236 588.791 336.903 582.939C335.719 582.348 335.259 584.254 336.377 584.78Z" fill="#E8E8E8"/>
<path d="M354.918 540.399C353.735 551.642 354.261 562.886 356.365 573.997C356.628 575.247 358.535 574.721 358.272 573.471C356.233 562.557 355.773 551.445 356.891 540.399C357.022 539.15 355.05 539.15 354.918 540.399Z" fill="#E8E8E8"/>
<path d="M120.388 639.287C118.876 634.882 117.758 630.279 117.232 625.611C117.035 623.639 116.903 621.666 116.903 619.628C116.903 618.576 116.706 617.064 116.969 616.077C116.969 615.683 117.035 615.288 117.035 614.894C118.284 613.973 119.336 614.105 120.191 615.223C120.783 615.749 121.966 615.42 121.9 614.499C121.703 611.804 121.703 609.108 122.032 606.412C122.229 605.097 122.426 603.782 122.755 602.533C122.887 602.073 124.465 597.602 124.596 597.799C125.056 598.456 126.174 598.456 126.371 597.536C129.199 585.898 134.261 575.049 140.442 564.858C142.02 562.228 143.729 559.598 145.439 557.034C147.346 554.207 150.502 549.735 153.395 554.667C156.353 559.664 157.208 566.962 157.471 572.682C158.129 584.78 155.367 596.813 151.488 608.187C147.74 619.299 143.072 630.411 135.05 639.156C134.196 640.076 135.576 641.457 136.431 640.536C143.401 632.975 147.806 623.704 151.422 614.171C155.236 603.979 158.326 593.394 159.246 582.545C159.707 577.285 159.641 571.959 158.852 566.699C158.194 562.162 157.208 556.376 154.381 552.563C148.529 544.804 141.757 558.94 139.324 562.885C132.749 573.537 127.423 584.846 124.465 597.01C125.056 596.944 125.648 596.878 126.24 596.747C124.596 594.577 122.558 596.747 121.835 598.588C119.796 603.519 119.402 609.239 119.862 614.434C120.454 614.171 120.98 613.973 121.572 613.71C120.322 612.593 118.284 611.146 116.509 612.001C114.668 612.921 114.931 615.42 114.931 617.129C114.734 624.822 115.983 632.383 118.481 639.682C118.876 640.997 120.783 640.471 120.388 639.287Z" fill="#E8E8E8"/>
<path d="M150.765 552.431C148.529 567.948 144.781 583.202 139.456 597.93C134.524 611.738 126.24 625.085 124.399 639.813C124.267 641.062 126.24 641.062 126.371 639.813C127.358 631.989 130.382 624.756 133.538 617.655C136.497 610.949 139.324 604.177 141.757 597.273C146.82 582.874 150.436 568.014 152.606 552.892C152.803 551.708 150.896 551.182 150.765 552.431Z" fill="#E8E8E8"/>
<path d="M132.618 575.904C133.341 586.358 134.393 596.747 135.774 607.135C135.971 608.385 137.812 607.859 137.68 606.609C136.3 596.418 135.248 586.161 134.59 575.904C134.524 574.655 132.552 574.589 132.618 575.904Z" fill="#E8E8E8"/>
<path d="M144.913 587.673C150.173 582.479 154.71 576.627 158.523 570.315C159.181 569.198 157.471 568.211 156.814 569.329C153.066 575.51 148.661 581.164 143.532 586.293C142.612 587.147 143.992 588.528 144.913 587.673Z" fill="#E8E8E8"/>
<path d="M113.09 638.301C108.553 631.791 104.74 624.822 101.847 617.392C100.532 614.039 99.4139 610.554 98.4934 607.07C98.0331 605.229 97.5729 603.388 97.1784 601.481C96.9154 600.363 95.2059 593.065 97.5729 593.525C98.3619 593.657 98.9536 593.065 98.7564 592.342C97.1126 583.268 96.0606 574.129 95.7319 564.924C95.6004 560.716 95.5346 556.376 96.4551 552.3C96.9154 550.327 97.5729 548.026 98.8879 546.382C101.912 542.7 105.068 545.725 107.041 548.486C116.509 561.768 122.558 577.745 125.451 593.722C125.648 594.972 127.555 594.446 127.358 593.196C125.517 583.268 122.492 573.668 118.35 564.529C116.18 559.795 113.747 555.259 110.986 550.919C109.145 548.026 106.778 543.489 103.03 542.7C94.8114 540.991 93.7594 555.324 93.6936 560.387C93.5621 571.302 94.8771 582.282 96.8496 592.999C97.2441 592.605 97.6386 592.21 98.0331 591.815C90.1431 590.435 96.6524 608.516 97.6386 611.606C100.729 621.535 105.397 630.937 111.315 639.484C112.104 640.339 113.813 639.353 113.09 638.301Z" fill="#E8E8E8"/>
<path d="M100.137 544.739C107.501 567.554 113.747 590.764 118.876 614.171C119.139 615.42 121.046 614.894 120.783 613.645C115.654 590.238 109.408 567.028 102.044 544.213C101.649 543.029 99.7427 543.555 100.137 544.739Z" fill="#E8E8E8"/>
<path d="M95.3375 575.247C103.162 578.6 109.539 584.32 113.616 591.75C114.208 592.868 115.917 591.881 115.325 590.764C111.052 583.005 104.477 577.022 96.3237 573.537C95.1402 573.077 94.154 574.786 95.3375 575.247Z" fill="#E8E8E8"/>
<path d="M113.682 558.48C111.972 564.99 110.92 571.565 110.526 578.271C110.46 579.52 112.432 579.52 112.498 578.271C112.827 571.762 113.879 565.318 115.588 559.006C115.917 557.757 114.01 557.231 113.682 558.48Z" fill="#E8E8E8"/>
<path d="M909.388 640.668C904.194 628.044 902.682 614.302 905.312 600.889C904.983 601.152 904.654 601.349 904.391 601.612C905.903 601.349 907.021 602.007 907.81 603.651C908.139 604.571 909.848 604.571 909.717 603.388C909.125 597.602 909.125 591.75 909.848 585.964C910.243 583.071 910.769 580.244 911.492 577.416C911.821 576.101 912.215 574.786 912.61 573.471C912.873 572.748 913.07 571.959 913.333 571.236C913.793 570.184 914.056 569.066 914.056 567.883C914.582 568.211 915.174 568.54 915.7 568.869C917.936 556.837 923.787 545.988 932.466 537.44C932.006 537.44 931.546 537.44 931.086 537.44C934.11 540.662 934.242 545.265 934.702 549.407C935.162 553.746 935.491 558.086 935.688 562.425C936.148 570.907 936.148 579.455 935.688 587.936C934.833 605.492 932.138 622.85 927.667 639.813C927.338 641.062 929.245 641.588 929.573 640.339C934.242 622.389 937.003 603.979 937.726 585.438C938.121 576.101 937.924 566.765 937.266 557.494C936.806 550.853 937.332 541.32 932.401 536.06C932.006 535.665 931.349 535.665 931.02 536.06C922.078 544.804 916.029 556.048 913.728 568.343C913.53 569.263 914.648 570.052 915.371 569.329C915.503 569.198 915.569 569.132 915.7 569C915.963 568.737 916.095 568.409 915.963 568.014C915.437 566.502 914.056 566.042 912.873 567.291C912.018 568.146 911.689 569.658 911.295 570.776C910.506 573.011 909.848 575.247 909.257 577.548C907.153 586.03 906.627 594.774 907.547 603.453C908.205 603.388 908.862 603.256 909.454 603.19C908.533 600.889 906.692 599.508 904.128 599.706C903.734 599.706 903.273 599.969 903.208 600.429C900.578 614.171 901.958 628.307 907.284 641.26C908.007 642.312 909.914 641.851 909.388 640.668Z" fill="#E8E8E8"/>
<path d="M938.712 587.608C940.422 575.904 945.09 564.727 952.454 555.39C954.229 553.155 956.07 551.116 958.109 549.144C959.424 547.895 962.383 544.344 964.421 547.303C965.21 548.421 965.144 550.262 965.144 551.577C965.078 557.954 964.223 564.464 963.237 570.841C959.489 595.498 950.679 619.233 937.463 640.405C936.806 641.457 938.515 642.509 939.173 641.391C951.205 621.995 959.621 600.56 963.96 578.14C965.012 572.748 965.801 567.357 966.327 561.899C966.788 557.494 968.168 551.511 966.525 547.237C963.04 538.032 952.717 551.84 950.219 555.061C943.052 564.398 938.45 575.444 936.806 587.082C936.674 588.331 938.581 588.857 938.712 587.608Z" fill="#E8E8E8"/>
<path d="M937.595 582.676C936.806 593.788 935.294 604.768 933.058 615.683C932.795 616.932 934.702 617.458 934.965 616.209C937.266 605.163 938.778 593.985 939.567 582.676C939.633 581.427 937.661 581.427 937.595 582.676Z" fill="#E8E8E8"/>
<path d="M962.974 545.593C951.797 576.956 941.014 608.385 930.56 640.01C930.165 641.194 932.072 641.72 932.466 640.536C942.855 608.911 953.638 577.482 964.881 546.119C965.276 544.936 963.369 544.41 962.974 545.593Z" fill="#E8E8E8"/>
<path d="M930.757 538.229C925.629 572.419 920.434 606.544 915.306 640.734C915.109 641.983 917.015 642.509 917.213 641.26C922.341 607.07 927.535 572.945 932.664 538.755C932.861 537.506 930.954 536.914 930.757 538.229Z" fill="#E8E8E8"/>
<path d="M913.53 567.488C915.7 580.77 917.87 593.985 920.04 607.267C920.237 608.516 922.144 607.99 921.946 606.741C919.777 593.459 917.607 580.244 915.437 566.962C915.24 565.713 913.333 566.239 913.53 567.488Z" fill="#E8E8E8"/>
<path d="M935.688 557.363C931.283 564.858 927.535 572.682 924.445 580.835C923.985 582.019 925.891 582.545 926.352 581.361C929.376 573.406 933.058 565.713 937.398 558.415C938.055 557.231 936.346 556.245 935.688 557.363Z" fill="#E8E8E8"/>
<path d="M943.973 565.121C943.973 576.43 943.973 587.805 943.973 599.114C943.973 600.363 945.945 600.363 945.945 599.114C945.945 587.805 945.945 576.43 945.945 565.121C945.945 563.872 943.973 563.872 943.973 565.121Z" fill="#E8E8E8"/>
<path d="M328.29 666.902C332.629 664.14 337.823 663.286 342.755 664.798C347.028 666.113 350.579 667.888 355.181 667.691C359.455 667.494 363.597 666.376 367.871 666.113C370.172 665.981 372.474 666.047 374.709 666.836C376.945 667.625 378.523 668.809 380.89 668.94C382.139 669.006 382.139 667.033 380.89 666.968C378.194 666.836 375.893 664.929 373.263 664.403C371.159 664.009 368.989 664.009 366.819 664.206C362.217 664.666 357.68 665.981 353.077 665.718C348.278 665.455 344.201 662.562 339.467 662.102C335.128 661.708 330.92 662.891 327.303 665.192C326.251 665.85 327.238 667.559 328.29 666.902Z" fill="#E8E8E8"/>
<path d="M495.426 661.313C502.001 661.116 508.576 660.853 515.085 660.656C518.307 660.524 521.66 660.196 524.882 660.459C527.578 660.656 529.616 662.168 532.114 662.76C534.153 663.22 536.125 662.891 538.163 662.431C541.648 661.642 545.067 660.919 548.683 660.787C554.93 660.459 561.176 661.182 567.356 661.905C568.606 662.037 568.606 660.064 567.356 659.933C561.176 659.209 554.93 658.486 548.683 658.815C545.725 658.946 542.766 659.341 539.873 659.998C536.388 660.787 533.692 661.379 530.339 659.867C525.474 657.763 520.345 658.486 515.217 658.683C508.642 658.881 502.067 659.144 495.558 659.341C494.177 659.407 494.177 661.379 495.426 661.313Z" fill="#E8E8E8"/>
<path d="M731.732 727.524C738.372 728.51 744.882 727.261 751.391 726.011C755.402 725.222 759.412 724.433 763.555 724.302C767.631 724.17 771.445 725.091 775.39 726.011C778.809 726.8 782.096 727.129 785.581 726.735C789.066 726.275 792.419 725.354 795.904 724.959C803.465 724.039 810.566 727.721 818.127 727.261C819.376 727.195 819.376 725.222 818.127 725.288C811.092 725.683 804.517 722.395 797.482 722.79C794.128 722.987 790.907 723.842 787.553 724.434C783.082 725.223 779.137 724.894 774.732 723.842C768.157 722.198 762.042 722.066 755.336 723.25C747.643 724.565 740.016 726.735 732.192 725.617C731.008 725.42 730.482 727.326 731.732 727.524Z" fill="#E8E8E8"/>
<path d="M913.991 663.68C927.141 659.275 941.408 663.417 954.953 661.576C958.766 661.05 962.646 660.393 966.525 660.722C969.747 660.985 972.771 662.234 975.927 662.563C979.215 662.826 982.436 661.905 985.658 661.576C989.669 661.182 993.614 661.445 997.559 662.168C998.808 662.431 999.334 660.524 998.085 660.261C994.797 659.67 991.444 659.341 988.091 659.407C984.54 659.538 981.121 660.524 977.571 660.59C974.218 660.656 971.062 659.209 967.708 658.815C964.092 658.355 960.476 658.815 956.86 659.275C949.167 660.327 941.803 660.261 934.11 659.867C927.075 659.538 920.105 659.472 913.399 661.774C912.281 662.168 912.741 664.075 913.991 663.68Z" fill="#E8E8E8"/>
<path d="M370.172 714.505C424.416 714.505 478.726 714.505 532.969 714.505C534.219 714.505 534.219 712.533 532.969 712.533C478.726 712.533 424.416 712.533 370.172 712.533C368.923 712.533 368.923 714.505 370.172 714.505Z" fill="#161616"/>
<path d="M521.595 725.223C549.473 725.223 577.285 725.223 605.163 725.223C606.412 725.223 606.412 723.25 605.163 723.25C577.285 723.25 549.473 723.25 521.595 723.25C520.28 723.25 520.28 725.223 521.595 725.223Z" fill="#161616"/>
<path d="M733.638 693.794C762.897 693.794 792.222 693.794 821.48 693.794C822.729 693.794 822.729 691.821 821.48 691.821C792.222 691.821 762.897 691.821 733.638 691.821C732.389 691.821 732.389 693.794 733.638 693.794Z" fill="#161616"/>
<path d="M855.013 696.687C872.371 696.687 889.795 696.687 907.152 696.687C908.402 696.687 908.402 694.714 907.152 694.714C889.795 694.714 872.371 694.714 855.013 694.714C853.764 694.714 853.764 696.687 855.013 696.687Z" fill="#161616"/>
<path d="M140.245 676.699C171.213 676.699 202.115 676.699 233.084 676.699C234.333 676.699 234.333 674.726 233.084 674.726C202.115 674.726 171.213 674.726 140.245 674.726C138.995 674.726 138.995 676.699 140.245 676.699Z" fill="#161616"/>
<path d="M228.81 669.532C245.97 669.532 263.066 669.532 280.226 669.532C281.476 669.532 281.476 667.56 280.226 667.56C263.066 667.56 245.97 667.56 228.81 667.56C227.56 667.56 227.56 669.532 228.81 669.532Z" fill="#161616"/>
<path d="M523.83 685.575C546.316 685.575 568.737 685.575 591.224 685.575C592.473 685.575 592.473 683.603 591.224 683.603C568.737 683.603 546.316 683.603 523.83 683.603C522.515 683.603 522.515 685.575 523.83 685.575Z" fill="#161616"/>
<path d="M813.656 344.793C813.919 339.73 823.519 344.793 826.215 344.333C829.765 343.741 830.554 339.796 834.631 340.651C837.129 341.177 839.496 342.36 842.126 342.097C843.836 341.9 845.085 340.914 846.729 340.453C849.293 339.73 851.857 340.519 853.764 342.36C854.684 343.215 856.065 341.834 855.145 340.979C852.252 338.218 848.635 337.626 844.953 339.007C841.863 340.19 840.022 340.059 836.932 339.138C835.42 338.678 833.842 338.218 832.264 338.415C830.423 338.678 829.699 339.599 828.45 340.716C824.702 343.938 822.007 340.979 818.062 340.388C815.037 339.927 811.947 341.44 811.75 344.793C811.618 346.108 813.591 346.108 813.656 344.793Z" fill="#5222D0"/>
<path d="M824.9 334.799C825.426 330.459 833.053 334.141 835.288 334.339C838.313 334.602 839.036 332.892 841.206 331.314C845.216 328.355 848.109 332.103 852.12 331.906C853.238 331.84 853.83 331.183 854.75 330.657C857.314 329.21 859.813 328.881 862.114 331.051C863.035 331.906 864.415 330.525 863.495 329.67C860.799 327.172 857.577 326.975 854.356 328.421C852.909 329.079 853.764 329.802 851.265 329.802C850.016 329.802 848.438 328.816 847.189 328.487C845.414 328.027 843.573 327.764 841.797 328.487C838.904 329.67 838.773 332.563 834.696 332.235C832.658 332.103 830.883 330.854 828.779 330.722C825.952 330.525 823.19 331.709 822.796 334.733C822.73 336.048 824.702 336.048 824.9 334.799Z" fill="#5222D0"/>
<path d="M201.063 572.617C203.759 570.644 206.06 569.724 209.216 571.236C210.466 571.828 211.649 572.485 213.03 572.748C215.923 573.208 218.553 571.762 221.117 570.644C223.484 569.592 225.457 569 227.955 570.315C229.336 571.039 230.454 572.025 232.032 572.288C235.188 572.88 239.856 569.855 242.354 572.288C243.275 573.143 244.656 571.762 243.735 570.907C241.302 568.54 238.344 569.658 235.319 570.184C233.281 570.513 231.966 570.447 230.125 569.395C229.27 568.869 228.481 568.211 227.495 567.883C226.18 567.422 224.865 567.357 223.484 567.62C221.709 568.014 220.065 568.935 218.356 569.658C215.265 570.973 213.227 570.907 210.071 569.526C206.06 567.685 203.496 568.277 199.88 570.907C199.091 571.63 200.077 573.34 201.063 572.617Z" fill="#5222D0"/>
<path d="M220.065 562.425C224.536 557.428 232.163 563.214 237.686 562.031C239.724 561.571 241.039 560.913 243.143 561.636C244.393 562.097 245.445 562.951 246.694 563.412C249.127 564.266 251.428 563.872 253.663 562.82C254.781 562.294 253.795 560.584 252.677 561.11C248.075 563.346 246.036 559.861 242.026 559.204C240.776 559.006 239.79 559.335 238.607 559.73C236.371 560.387 234.662 560.453 232.295 559.927C227.692 558.941 222.301 556.968 218.553 561.11C217.83 561.965 219.21 563.346 220.065 562.425Z" fill="#5222D0"/>
<path d="M361.691 292.456C356.562 288.577 359.981 279.898 366.556 281.344C369.252 281.936 371.553 284.106 371.553 286.999C371.553 290.418 368.66 293.442 365.307 293.64C364.058 293.705 364.058 295.678 365.307 295.612C369.515 295.415 373.065 292.062 373.526 287.854C373.92 283.777 370.961 280.358 367.082 279.503C358.206 277.465 353.932 289.103 360.704 294.231C361.691 294.955 362.677 293.245 361.691 292.456Z" fill="#5222D0"/>
<path d="M162.6 503.053C159.312 499.437 162.402 492.994 167.465 494.374C173.58 496.018 172.002 504.631 165.887 504.566C164.638 504.566 164.638 506.538 165.887 506.538C169.569 506.538 172.922 503.777 173.448 500.095C173.974 496.676 171.673 493.717 168.517 492.599C161.35 490.101 156.353 499.108 161.219 504.434C162.074 505.355 163.454 503.974 162.6 503.053Z" fill="#EC615B"/>
<path d="M501.673 482.473C499.24 484.249 497.399 486.616 496.61 489.509C495.689 492.928 498.056 497.727 495.755 500.292C494.309 501.935 491.81 503.053 491.153 505.289C490.89 506.078 490.955 506.801 491.218 507.59C491.547 508.708 492.007 508.905 492.007 510.088C492.007 512.061 490.298 512.916 488.654 513.77C487.536 514.362 488.523 516.072 489.64 515.48C491.744 514.362 494.44 512.521 494.243 509.825C494.111 508.116 492.468 507.064 493.388 505.223C493.98 504.105 495.492 503.25 496.347 502.396C497.991 500.883 499.108 499.305 498.845 497.004C498.517 494.506 497.793 492.599 498.451 490.035C499.108 487.602 500.555 485.629 502.593 484.183C503.645 483.46 502.659 481.75 501.673 482.473Z" fill="#EC615B"/>
<path d="M511.338 489.048C505.749 488.522 505.091 495.426 505.354 499.437C505.486 501.672 505.617 503.908 504.237 505.749C503.513 506.669 502.461 507.393 502.001 508.51C501.607 509.497 501.87 510.286 502.067 511.338C502.659 514.559 500.883 516.663 498.714 518.767C497.793 519.688 499.174 521.069 500.094 520.148C501.804 518.439 503.776 516.466 504.237 513.968C504.434 512.784 503.974 511.864 503.974 510.746C503.974 508.708 505.223 507.984 506.143 506.538C507.59 504.434 507.524 501.87 507.327 499.437C507.13 496.61 506.932 490.626 511.338 491.021C512.653 491.152 512.587 489.18 511.338 489.048Z" fill="#EC615B"/>
<path d="M517.321 245.905C517.584 241.368 525.211 243.078 528.038 241.565C530.076 240.448 531.26 238.409 532.378 236.503C533.035 235.385 533.627 234.136 534.482 233.149C536.191 231.177 538.164 231.44 540.531 231.243C543.621 230.98 546.119 229.467 548.026 227.035C548.815 226.048 547.434 224.668 546.645 225.654C544.804 228.021 542.503 229.139 539.544 229.336C538.098 229.402 536.717 229.336 535.336 229.993C532.838 231.243 531.654 233.938 530.339 236.24C529.287 238.015 528.301 239.461 526.329 240.185C524.422 240.908 522.252 240.513 520.28 240.974C517.65 241.565 515.612 243.209 515.414 245.971C515.283 247.154 517.255 247.154 517.321 245.905Z" fill="#EC615B"/>
<path d="M523.107 254.124C525.08 250.902 529.09 250.113 532.246 248.535C535.074 247.154 536.52 245.379 537.375 242.355C538.624 237.686 542.24 238.278 546.251 237.686C548.684 237.292 550.656 236.503 551.643 234.07C552.103 232.887 550.196 232.361 549.736 233.544C548.487 236.503 543.555 235.78 540.925 236.371C538.23 236.897 536.389 238.147 535.6 240.842C534.876 243.275 534.613 244.787 532.378 246.168C530.997 247.023 529.419 247.615 527.907 248.272C525.277 249.39 522.844 250.639 521.332 253.138C520.74 254.19 522.45 255.176 523.107 254.124Z" fill="#EC615B"/>
<path d="M819.442 555.785C817.864 550.919 822.861 545.922 827.595 548.881C832.789 552.103 829.897 559.467 824.111 559.335C822.861 559.269 822.861 561.242 824.111 561.308C831.474 561.571 835.354 552.168 829.173 547.632C823.124 543.161 815.366 549.473 817.536 556.376C817.93 557.56 819.837 557.034 819.442 555.785Z" fill="#EC615B"/>
<path d="M509.694 620.68C507.853 617.261 509.826 612.264 514.231 612.922C516.006 613.185 517.716 614.5 517.716 616.472C517.716 618.379 516.203 620.286 514.231 620.351C512.982 620.417 512.982 622.39 514.231 622.324C520.411 622.061 521.529 613.316 515.743 611.278C509.365 609.108 505.157 616.341 507.985 621.666C508.642 622.784 510.352 621.798 509.694 620.68Z" fill="#EC615B"/>
<path d="M789.132 234.662C787.225 232.558 789.986 229.599 792.353 230.98C795.312 232.755 793.537 236.371 790.775 237.095C789.526 237.423 790.052 239.33 791.301 239.001C796.101 237.818 797.745 231.046 792.616 228.942C788.277 227.166 784.595 232.624 787.685 236.043C788.606 237.029 789.986 235.648 789.132 234.662Z" fill="#EC615B"/>
<path d="M113.024 301.792C109.211 299.82 111.512 293.771 115.786 295.02C120.783 296.467 119.073 302.91 114.668 303.831C113.419 304.094 113.945 306 115.194 305.737C121.769 304.291 123.018 294.56 115.786 292.982C109.54 291.601 106.384 300.543 111.972 303.436C113.156 304.094 114.142 302.384 113.024 301.792Z" fill="#5222D0"/>
<path d="M605.755 681.038C606.018 689.586 606.215 698.133 606.478 706.681C579.323 714.703 565.976 719.963 566.436 722.461C567.028 725.617 588.791 724.565 631.726 719.305C630.806 704.708 629.885 690.046 628.899 675.45C621.206 677.291 613.513 679.132 605.755 681.038Z" fill="#161616" stroke="#161616" stroke-width="2" stroke-miterlimit="10"/>
<path d="M691.69 512.521C687.745 513.705 688.6 514.165 667.297 530.537C644.745 547.829 633.501 556.508 625.677 560.913C621.14 563.477 617.458 565.319 612.922 569.527C605.426 576.562 601.613 584.583 598.654 592.408C589.449 616.801 588.068 640.142 587.805 650.531C587.542 660.13 587.739 673.675 590.041 689.915C597.142 691.624 603.059 692.084 607.267 692.15C614.565 692.282 624.954 692.413 635.737 686.89C638.893 685.246 641.326 683.537 642.838 682.419C640.931 671.176 639.485 657.04 640.208 640.799C640.8 627.715 642.575 616.209 644.679 606.675C648.164 604.045 653.489 600.298 660.393 596.55C668.349 592.276 676.305 589.12 698.265 582.677C724.565 574.984 725.486 575.839 729.365 572.551C739.425 564.135 746.657 547.172 741.003 532.444C733.639 513.047 707.733 507.853 691.69 512.521Z" fill="white"/>
<path d="M681.564 519.162C669.401 527.644 657.303 536.191 645.139 544.673C634.356 552.234 622.784 559.335 612.922 568.212C603.454 576.693 598.193 587.279 594.774 599.377C591.027 612.79 588.594 626.663 587.345 640.537C585.898 656.514 586.227 672.557 588.068 688.468C588.2 689.718 590.172 689.718 590.041 688.468C586.819 661.248 588.397 633.567 594.84 607.004C597.931 594.183 602.007 581.822 611.541 572.288C620.746 563.083 632.318 556.114 642.903 548.684C656.119 539.413 669.335 530.142 682.551 520.872C683.603 520.148 682.616 518.439 681.564 519.162Z" fill="#161616"/>
<path d="M718.845 574.918C704.38 579.06 690.112 583.663 676.042 588.923C669.861 591.224 663.549 593.525 657.5 596.221C652.503 598.457 647.835 601.284 644.942 606.084C644.284 607.201 645.994 608.188 646.651 607.07C649.807 601.744 655.462 599.114 660.919 596.879C667.231 594.314 673.609 591.882 680.052 589.515C693.005 584.781 706.089 580.573 719.305 576.825C720.554 576.496 720.028 574.589 718.845 574.918Z" fill="#161616"/>
<path d="M645.797 596.221C638.959 624.165 637.709 653.226 642.115 681.63C642.312 682.879 644.219 682.354 644.021 681.104C639.682 653.029 640.931 624.296 647.703 596.747C647.966 595.498 646.06 594.972 645.797 596.221Z" fill="#161616"/>
<path d="M588.923 688.402C589.252 692.084 594.972 691.493 597.47 691.756C603.519 692.347 609.568 692.808 615.683 692.479C625.546 691.953 635.211 689.191 642.969 682.879C643.955 682.091 642.575 680.71 641.588 681.499C634.948 686.89 626.729 689.52 618.313 690.309C613.974 690.704 609.634 690.704 605.295 690.441C603.717 690.375 591.027 690.046 590.895 688.402C590.764 687.153 588.791 687.153 588.923 688.402Z" fill="#161616"/>
<path opacity="0.11" d="M718.253 552.76C709.18 548.158 698.791 559.927 673.149 571.63C652.174 581.23 646.98 578.863 638.761 583.86C624.296 592.605 611.475 617.524 620.68 689.915C622.718 689.915 625.085 689.717 627.715 689.191C634.619 687.745 639.55 684.458 642.509 682.156C640.208 667.757 638.827 649.61 641.063 628.899C641.983 620.154 643.43 612.132 645.139 604.9C651.385 601.284 661.116 596.089 673.609 591.224C703.92 579.323 722.724 580.046 725.749 569.395C727.327 563.412 723.645 555.456 718.253 552.76Z" fill="#666666"/>
<path opacity="0.12" d="M711.612 577.153C711.284 575.378 689.981 576.299 667.626 583.794C653.358 588.528 645.599 591.158 638.827 598.588C628.044 610.291 627.452 625.348 626.598 646.257C626.203 656.185 626.466 670.518 629.951 687.679C634.29 686.298 638.564 684.983 642.904 683.603C641.26 671.373 640.208 656.645 641.063 640.01C641.72 627.584 643.232 616.472 645.139 606.741C647.046 604.703 649.939 601.81 654.015 598.982C662.892 592.736 670.716 591.158 679.921 588.66C691.822 585.306 711.941 578.863 711.612 577.153Z" fill="#666666"/>
<path d="M821.875 636.263C836.208 631.594 848.372 628.964 857.249 627.386C869.938 625.151 872.897 625.611 875.264 627.386C879.34 630.411 878.486 634.882 879.998 662.76C880.524 671.899 880.787 674.2 878.946 677.028C872.7 686.956 851.923 686.496 850.345 682.156C849.753 680.447 851.725 677.291 861.588 670.913C861.259 664.667 860.931 658.42 860.536 652.174C849.293 654.87 838.049 657.631 826.872 660.327C825.294 652.371 823.584 644.35 821.875 636.263Z" fill="#161616" stroke="#161616" stroke-width="2" stroke-miterlimit="10"/>
<path d="M707.01 523.041C702.67 533.232 705.761 544.147 707.207 549.275C708.851 555.193 710.429 555.982 713.059 563.938C715.886 572.485 716.741 578.666 717.924 586.095C719.634 596.944 721.606 609.305 724.697 621.666C728.51 636.92 730.614 644.744 736.926 653.226C739.688 656.974 746.197 665.39 757.637 669.861C759.807 670.716 762.7 671.636 769.867 672.557C777.757 673.609 789.986 675.187 806.161 673.214C819.968 671.57 831.475 667.888 840.088 664.404C841.797 658.092 841.732 652.832 841.469 649.478C841.074 645.27 840.417 637.446 834.696 630.805C833.053 628.899 830.62 626.137 826.543 624.691C822.072 623.178 818.062 624.165 810.961 626.071C802.742 628.241 799.717 630.608 794.326 629.49C792.025 629.03 790.315 628.11 789.263 627.452C787.685 625.019 785.515 621.337 783.477 616.603C778.151 604.242 777.757 594.314 777.034 583.4C775.39 558.809 774.535 546.514 770.59 532.904C766.448 518.636 765.264 511.469 759.084 507.13C752.706 502.659 745.474 502.987 741.003 503.185C730.022 503.645 713.059 508.905 707.01 523.041Z" fill="white"/>
<path d="M762.24 511.667C773.023 534.285 773.878 559.664 776.245 584.123C777.954 601.81 779.466 626.071 797.416 635.408C798.534 636 799.52 634.29 798.402 633.698C789.197 628.899 784.595 619.431 782.031 609.765C779.269 599.18 778.546 588.068 777.625 577.153C775.653 554.535 773.878 531.457 764.015 510.614C763.423 509.497 761.714 510.483 762.24 511.667Z" fill="#161616"/>
<path d="M708.785 556.705C720.357 582.94 717.464 612.856 728.707 639.156C733.178 649.676 739.885 659.538 749.419 666.048C760.991 673.872 776.047 675.45 789.658 675.253C806.818 674.99 823.716 671.044 839.628 664.798C840.811 664.338 840.285 662.431 839.102 662.892C825.228 668.349 810.632 672.096 795.707 673.017C781.505 673.937 765.33 673.214 752.772 665.85C730.746 652.898 724.894 625.085 721.343 601.876C718.976 586.161 716.872 570.316 710.363 555.653C709.969 554.601 708.259 555.588 708.785 556.705Z" fill="#161616"/>
<path d="M788.014 627.781C799.914 634.75 813.525 621.337 826.083 625.414C833.052 627.715 836.471 635.211 838.378 641.786C840.482 648.887 840.745 656.316 839.299 663.549C839.036 664.798 840.942 665.324 841.205 664.075C842.52 657.237 842.455 650.202 840.877 643.429C839.364 637.249 836.734 630.214 831.54 626.137C826.74 622.324 820.363 622.258 814.577 623.376C806.818 624.888 796.627 630.608 789 626.137C787.882 625.48 786.896 627.123 788.014 627.781Z" fill="#161616"/>
<path opacity="0.11" d="M752.509 510.812C741.463 521.66 763.752 545.528 764.147 585.635C764.475 616.998 757.046 630.016 767.04 640.536C781.373 655.593 813.788 646.914 817.338 645.928C822.993 644.35 835.091 642.049 836.077 635.934C836.669 631.923 832.461 627.386 828.187 625.151C815.169 618.247 803.005 633.501 791.564 628.504C782.951 624.691 781.044 612.067 777.428 588.594C774.469 569.329 776.31 565.253 772.826 544.081C770.261 528.498 766.974 509.036 759.084 507.919C755.928 507.393 753.035 510.22 752.509 510.812Z" fill="#666666"/>
<path opacity="0.17" d="M770.393 536.586C769.341 536.651 769.275 549.275 769.144 564.858C768.815 609.108 771.313 618.51 777.034 626.795C779.401 630.214 783.872 636.526 792.025 640.076C810.04 648.032 833.973 637.578 834.039 630.937C834.039 627.584 827.924 625.085 826.938 624.691C820.692 622.192 815.892 624.625 803.202 626.795C797.942 627.715 793.471 628.175 790.315 628.438C787.948 625.48 784.661 620.877 782.031 614.697C776.968 603.059 777.362 593.591 777.034 583.531C776.31 558.678 771.708 536.52 770.393 536.586Z" fill="#666666"/>
<path d="M526.066 426.98C526.197 425.468 529.682 424.679 531.786 424.219C540.399 422.312 547.829 423.759 549.801 424.548C553.483 425.994 557.165 427.441 560.913 428.887C561.11 427.769 561.702 425.402 563.609 423.627C567.028 420.537 571.893 421.72 573.208 422.115C574.918 422.575 577.614 423.627 582.216 428.624C586.95 433.753 587.608 436.383 590.303 439.736C596.55 447.494 605.952 449.533 610.686 450.519C614.828 451.439 623.178 453.215 632.581 449.27C640.865 445.785 645.533 439.67 647.572 436.909C649.544 434.213 650.202 432.635 654.147 423.627C662.168 405.283 664.732 399.628 670.321 393.974C673.346 390.884 677.028 387.267 680.841 388.122C685.509 389.174 687.482 396.472 688.337 399.563C689.257 402.982 690.441 409.491 687.745 420.866C686.824 424.811 683.668 436.448 674.529 449.27C670.716 454.661 665.39 461.959 655.922 468.14C651.78 470.836 645.007 475.175 635.211 476.49C626.532 477.674 619.891 475.898 614.236 474.32C607.99 472.611 597.602 468.797 586.621 459.79C579.586 460.118 574.195 460.579 570.447 461.039C564.069 461.762 561.373 462.354 558.48 460.71C557.494 460.118 556.048 459.066 554.009 459.198C552.103 459.329 551.445 460.381 549.801 460.71C547.96 461.105 544.936 460.776 543.226 458.54C541.846 456.765 541.977 454.53 542.043 453.806C540.925 452.82 539.15 450.979 538.295 448.218C537.703 446.311 537.769 444.733 537.769 442.958C537.835 440.854 537.835 439.802 538.361 438.947C539.873 436.317 544.213 436.448 544.87 436.514C542.766 434.936 540.859 434.081 539.676 433.621C535.599 431.977 533.43 432.503 529.682 430.465C528.17 429.545 525.934 428.295 526.066 426.98Z" fill="white"/>
<path d="M681.433 387.267C675.713 385.098 671.439 389.897 668.415 394.171C663.878 400.549 659.999 407.387 656.711 414.488C650.531 428.032 646.323 443.812 633.633 452.886C632.581 453.609 633.567 455.319 634.619 454.595C644.876 447.166 650.005 435.528 654.673 424.153C657.5 417.315 660.525 410.609 664.207 404.231C666.048 401.141 667.954 398.05 670.058 395.157C672.557 391.673 675.91 387.333 680.841 389.174C682.091 389.634 682.617 387.728 681.433 387.267Z" fill="#161616"/>
<path d="M566.436 430.071C563.609 430.991 562.491 427.507 563.346 425.6C564.004 424.088 565.713 423.299 567.16 422.838C569.921 422.049 573.077 422.575 575.641 423.825C579.915 425.929 582.348 430.202 584.978 434.016C589.58 440.722 595.695 446.114 603.125 449.401C617.919 455.911 635.211 452.426 646.586 440.985C647.506 440.065 646.06 438.684 645.205 439.605C637.446 447.495 626.466 451.703 615.42 450.651C604.111 449.599 593.854 443.024 587.279 433.884C582.414 426.981 576.299 417.71 566.239 421.063C563.412 421.984 560.65 424.482 561.111 427.704C561.505 430.597 564.135 432.898 567.028 431.912C568.146 431.583 567.62 429.676 566.436 430.071Z" fill="#161616"/>
<path d="M559.598 427.375C554.338 424.745 548.815 422.707 542.964 422.115C537.835 421.589 530.668 421.786 526.46 425.271C522.647 428.427 527.644 430.465 530.339 431.583C536.52 434.147 543.49 434.936 549.473 438.026C550.591 438.618 551.577 436.909 550.459 436.317C546.777 434.41 542.832 433.49 538.887 432.372C536.783 431.78 534.745 431.123 532.707 430.334C531.589 429.939 529.353 429.479 528.498 428.558C526.986 426.98 528.893 425.994 530.339 425.468C539.479 421.72 550.262 424.876 558.678 429.084C559.73 429.61 560.716 427.901 559.598 427.375Z" fill="#161616"/>
<path d="M549.012 436.777C546.185 435.068 542.635 434.871 539.807 436.646C537.506 438.027 535.599 441.051 536.651 443.747C537.835 446.837 542.437 447.166 545.133 447.692C549.275 448.415 553.22 448.415 557.034 446.508C558.152 445.917 557.165 444.207 556.048 444.799C551.774 446.969 547.04 446.18 542.503 445.128C540.728 444.733 540.662 444.799 539.544 442.892C538.098 441.709 538.164 440.459 539.61 439.276C540.005 438.947 540.399 438.684 540.794 438.355C543.029 436.975 545.791 437.172 548.026 438.487C549.078 439.144 550.064 437.435 549.012 436.777Z" fill="#161616"/>
<path d="M537.703 444.864C536.388 448.481 538.098 452.228 541.451 454.004C545.791 456.305 550.722 454.595 554.864 452.952C556.048 452.491 555.522 450.585 554.338 451.045C551.577 452.163 548.552 453.346 545.528 453.083C541.583 452.754 538.098 449.533 539.61 445.39C540.005 444.207 538.098 443.681 537.703 444.864Z" fill="#161616"/>
<path d="M540.794 453.149C539.61 456.831 542.569 459.921 545.922 460.908C550.854 462.288 554.799 459.527 558.349 456.437C559.335 455.582 557.889 454.201 556.968 455.056C554.733 456.963 552.432 459.001 549.407 459.264C546.383 459.527 541.386 457.686 542.701 453.675C543.095 452.492 541.188 451.966 540.794 453.149Z" fill="#161616"/>
<path d="M552.234 440.262C554.207 440.919 557.231 442.695 555.653 445.127C554.996 446.179 556.705 447.166 557.363 446.114C558.283 444.667 558.217 442.76 557.231 441.314C556.245 439.736 554.47 438.881 552.694 438.355C551.511 437.961 550.985 439.867 552.234 440.262Z" fill="#161616"/>
<path d="M555.062 446.968C556.442 448.481 555.851 450.848 553.878 451.439C552.695 451.768 553.155 453.675 554.404 453.346C557.889 452.36 558.875 448.152 556.508 445.522C555.588 444.667 554.207 446.048 555.062 446.968Z" fill="#161616"/>
<path d="M555.982 451.834C557.297 452.557 557.494 454.53 556.442 455.516C555.522 456.371 556.902 457.817 557.823 456.897C559.795 454.99 559.401 451.439 556.968 450.124C555.916 449.533 554.864 451.242 555.982 451.834Z" fill="#161616"/>
<path d="M558.283 428.953C559.73 429.61 561.176 430.334 562.623 430.991C563.74 431.517 564.792 429.808 563.609 429.282C562.162 428.624 560.716 427.901 559.269 427.243C558.152 426.717 557.165 428.427 558.283 428.953Z" fill="#161616"/>
<path d="M567.225 431.978C568.672 430.728 570.644 430.202 572.551 430.662C573.8 430.925 574.326 429.019 573.077 428.756C570.447 428.164 567.883 428.821 565.844 430.597C564.858 431.452 566.239 432.832 567.225 431.978Z" fill="#161616"/>
<path d="M568.343 434.344C566.502 439.802 568.672 445.851 573.603 448.809C574.721 449.467 575.707 447.757 574.589 447.1C570.381 444.601 568.672 439.407 570.25 434.87C570.644 433.621 568.737 433.095 568.343 434.344Z" fill="#161616"/>
<path d="M554.47 459.527C558.415 462.354 562.689 462.946 567.357 462.025C573.866 460.842 580.112 460.25 586.753 460.973C588.002 461.105 588.002 459.132 586.753 459.001C581.625 458.409 576.496 458.475 571.368 459.264C565.516 460.184 560.716 461.565 555.456 457.817C554.404 457.094 553.418 458.804 554.47 459.527Z" fill="#161616"/>
<path d="M585.043 460.118C594.446 464.589 603.125 470.573 612.856 474.255C621.798 477.608 631.594 478.265 640.931 475.964C650.53 473.597 658.289 467.943 665.061 460.907C672.096 453.675 678.408 445.522 682.879 436.383C688.139 425.731 690.704 413.896 689.389 402.061C689.257 400.812 687.285 400.812 687.416 402.061C688.863 415.08 685.509 428.032 679.066 439.341C673.083 449.861 664.601 460.381 654.673 467.482C644.679 474.583 631.726 476.95 619.759 474.255C607.53 471.493 597.207 463.669 585.964 458.343C584.912 457.883 583.926 459.592 585.043 460.118Z" fill="#161616"/>
<path opacity="0.16" d="M684.063 394.894C681.499 395.026 681.828 405.94 678.737 417.118C674.201 433.292 661.182 454.53 642.049 461.039C628.504 465.641 614.828 461.828 593.065 455.713C586.161 453.806 573.998 449.796 557.166 448.744C543.292 447.889 539.873 449.861 539.742 450.913C539.676 451.571 540.925 452.031 541.648 454.135C542.24 455.91 541.583 456.502 542.174 457.62C543.226 459.658 546.382 459.921 547.5 460.053C550.262 460.316 552.497 459.329 553.681 458.738C554.93 459.329 556.903 460.118 559.335 460.644C564.069 461.631 566.765 460.71 572.748 460.118C578.929 459.527 583.005 459.132 587.476 460.381C591.75 461.565 593.723 463.537 597.405 466.036C598.522 466.759 609.042 473.794 622.061 475.964C626.137 476.622 635.474 478.068 645.862 474.057C651.78 471.822 655.528 468.732 659.801 465.247C662.497 463.011 674.529 452.754 683.34 433.621C687.219 425.271 690.375 418.236 689.52 408.965C688.797 402.193 686.233 394.763 684.063 394.894Z" fill="#666666"/>
<path opacity="0.17" d="M558.218 453.806C561.374 452.228 565.056 453.543 566.502 454.069C574.721 456.897 575.51 454.924 587.937 456.765C598.194 458.277 598.588 461.236 612.067 465.576C625.02 469.784 635.474 473.137 645.797 469.849C660.459 465.181 667.231 450.387 667.757 450.848C668.283 451.242 662.366 465.576 648.229 472.282C635.408 478.397 622.061 475.307 618.247 474.452C612.067 473.005 607.07 470.638 601.613 468.008C595.235 464.984 590.238 461.828 586.622 459.461C582.019 459.264 578.403 459.658 575.904 459.987C569.79 460.907 567.225 462.288 562.228 461.565C560.913 461.368 555.456 460.579 554.996 458.08C554.733 456.436 556.508 454.661 558.218 453.806Z" fill="#666666"/>
<path d="M674.529 389.766C672.754 391.936 670.453 395.552 668.743 424.285C667.823 440.196 666.902 456.897 668.283 481.421C668.875 491.415 669.992 505.091 672.294 521.266C679.658 525.474 693.071 531.72 710.823 532.772C739.293 534.482 760.07 521.595 767.039 516.861C763.489 509.825 758.623 498.911 755.533 484.972C751.72 467.877 753.561 460.316 751.522 439.341C748.827 411.595 747.512 397.722 739.096 389.306C722.987 373.131 687.613 373.657 674.529 389.766Z" fill="#EC615B"/>
<path opacity="0.22" d="M710.363 377.931C715.031 384.9 721.015 395.223 725.749 408.636C727.787 414.488 737.912 444.601 730.548 483.328C726.669 503.908 719.108 520.477 711.875 532.706C716.938 533.035 722.856 532.969 729.365 532.115C746.657 529.748 759.61 522.581 767.303 517.321C764.87 512.85 761.78 506.538 759.15 498.648C758.624 496.938 756.059 489.246 754.35 477.279C753.166 469.126 753.364 466.43 752.575 453.149C752.377 450.059 751.588 437.5 749.879 423.035C747.38 401.864 745.474 397.261 742.318 393.185C737.847 387.399 732.192 384.309 729.694 382.928C721.804 378.851 714.44 378.062 710.363 377.931Z" fill="#666666"/>
<path opacity="0.22" d="M749.944 427.309C748.958 437.961 747.643 448.941 746.065 460.25C742.449 485.761 737.649 509.497 732.192 531.26C736.663 530.668 742.383 529.485 748.629 527.052C756.782 523.896 762.897 519.688 767.039 516.4C758.295 501.015 755.27 488.128 754.152 478.923C753.035 469.652 753.429 460.71 751.259 438.881C750.733 434.016 750.273 430.005 749.944 427.309Z" fill="#666666"/>
<path d="M647.703 311.523C646.388 314.745 646.454 318.559 646.454 326.251C646.454 331.709 646.52 339.336 649.347 348.343C651.517 355.313 653.621 362.282 660.13 368.463C661.971 370.238 669.927 377.799 681.17 377.799C683.34 377.799 685.181 377.536 686.364 377.273C686.89 379.246 688.008 382.007 690.112 384.835C691.23 386.281 692.347 387.399 693.334 388.254C694.912 388.254 698.922 387.991 703.065 385.361C707.01 382.796 708.851 379.443 709.508 377.997C708.325 376.813 705.235 373.328 705.037 368.266C704.972 366.885 705.169 365.701 705.366 364.649C707.536 361.888 709.837 358.272 711.809 353.866C712.796 351.697 713.519 349.658 714.176 347.752C715.163 348.015 717.135 348.343 719.042 347.423C721.08 346.371 721.803 344.333 722.658 341.834C723.907 338.152 725.288 334.01 723.579 330.328C721.935 326.843 719.371 327.632 717.135 324.41C713.716 319.611 717.069 314.745 715.689 309.485C713.585 301.398 701.881 297.913 697.344 296.532C678.737 291.009 653.489 297.19 647.703 311.523Z" fill="white"/>
<path d="M645.994 320.991C647.637 321.254 648.689 318.69 651.254 316.126C653.884 313.562 658.289 310.866 666.179 310.143C672.622 309.485 679.066 308.762 685.509 308.104C687.548 308.236 692.216 308.762 696.884 311.984C700.632 314.614 702.67 317.77 703.656 319.479C705.695 319.545 707.667 319.676 709.705 319.742C710.1 322.175 710.56 324.608 710.955 327.04C711.218 326.777 714.768 323.621 718.45 324.805C721.409 325.725 722.658 328.881 723.184 330.328C724.828 334.339 723.71 337.56 724.696 337.823C725.88 338.218 728.181 333.878 728.444 333.287C729.036 332.169 730.943 328.29 731.469 322.241C731.863 317.309 732.126 314.022 730.219 310.932C729.562 309.88 728.904 309.222 728.707 307.907C728.378 305.409 730.351 304.028 731.469 301.661C732.06 300.412 732.192 299.228 730.482 290.155C728.641 280.424 727.984 279.109 726.998 278.846C725.683 278.583 724.499 280.358 722.987 281.87C720.357 284.566 715.82 287.525 707.404 288.642C707.404 285.684 707.01 283.317 706.681 281.607C706.089 278.977 705.76 278.977 703.656 272.797C702.473 269.312 702.21 267.865 701.421 267.8C700.106 267.668 699.646 271.021 696.555 272.205C695.175 272.731 694.649 272.271 692.808 272.534C691.164 272.731 688.928 273.454 686.364 275.624C686.364 275.624 682.419 278.32 675.844 281.673C668.546 285.355 666.113 281.344 658.552 284.697C652.897 287.196 649.478 291.667 648.032 293.705C646.585 295.743 642.509 301.661 642.509 309.814C642.378 314.482 643.693 320.663 645.994 320.991Z" fill="#5222D0"/>
<path d="M646.059 323.622C644.942 334.799 646.783 346.174 651.517 356.365C655.527 364.978 661.905 373.526 671.11 376.945C680.512 380.429 691.295 377.865 699.12 371.948C707.075 365.899 712.072 356.891 715.031 347.489C715.426 346.305 713.519 345.779 713.124 346.963C710.297 355.905 705.563 364.518 698.002 370.304C690.178 376.222 679.197 378.72 670.058 374.381C661.839 370.501 656.316 362.414 652.766 354.327C648.492 344.662 646.98 334.076 648.032 323.622C648.163 322.372 646.191 322.372 646.059 323.622Z" fill="#161616"/>
<path d="M712.335 328.553C713.256 324.542 717.924 324.674 720.291 327.238C722.329 329.342 722.79 332.432 722.855 335.259C722.987 339.993 721.277 348.738 714.505 346.568C713.322 346.174 712.796 348.081 713.979 348.475C723.579 351.565 725.683 338.218 724.499 331.775C723.776 328.027 721.343 324.016 717.201 323.49C714.045 323.096 711.152 325.068 710.429 328.158C710.166 329.21 712.072 329.736 712.335 328.553Z" fill="#161616"/>
<path d="M670.453 324.41C668.94 327.566 667.428 330.657 665.982 333.813C665.258 335.456 664.469 337.1 664.601 339.007C664.93 342.886 668.349 345.45 671.899 346.305C673.148 346.634 673.674 344.727 672.425 344.398C668.151 343.346 665.521 339.927 667.362 335.588C668.809 332.169 670.518 328.816 672.162 325.397C672.688 324.279 670.979 323.293 670.453 324.41Z" fill="#161616"/>
<path d="M660.853 333.024C660.459 332.563 660.196 331.972 660.13 331.38C660.064 331.117 660.064 330.788 660.13 330.525C660.13 330.328 660.459 329.736 660.459 329.605C660.327 329.605 660.261 329.67 660.13 329.67C660.196 329.868 660.196 330.065 660.196 330.262C660.196 330.591 660.196 330.92 660.196 331.248C660.13 332.103 659.933 332.892 659.604 333.681C660.13 333.55 660.722 333.418 661.248 333.221C660.59 332.629 660.327 332.037 660.393 331.117C660.524 329.868 658.552 329.868 658.42 331.117C658.289 332.432 658.815 333.747 659.867 334.602C660.459 335.128 661.248 334.865 661.511 334.141C662.102 332.629 662.365 330.92 662.102 329.342C661.905 328.224 660.985 327.106 659.801 327.632C658.683 328.092 658.223 329.67 658.223 330.854C658.223 332.169 658.683 333.418 659.604 334.404C660.327 335.391 661.708 333.944 660.853 333.024Z" fill="#161616"/>
<path d="M685.97 332.037C685.772 331.511 685.641 331.051 685.641 330.525C685.641 330.262 685.707 329.999 685.772 329.736C685.772 329.671 685.838 329.539 685.838 329.473C685.97 329.276 685.904 329.276 685.575 329.473C685.575 329.539 685.707 329.868 685.707 329.999C685.707 330.262 685.707 330.525 685.641 330.788C685.509 331.38 685.246 331.906 684.918 332.366C685.444 332.432 685.97 332.498 686.496 332.563C685.707 331.446 685.772 330.131 686.627 329.013C686.101 329.079 685.575 329.145 685.049 329.21C685.707 329.999 685.246 331.183 684.457 331.577C684.918 331.774 685.444 331.972 685.904 332.169C685.707 331.643 685.575 331.183 685.509 330.591C685.509 330.262 685.575 329.933 685.575 329.605C685.575 329.473 685.641 329.407 685.641 329.276C685.444 329.013 685.378 328.947 685.509 329.145C685.707 329.671 685.838 330.065 685.772 330.657C685.772 330.92 685.641 331.314 685.641 331.512C685.641 331.643 685.575 331.709 685.575 331.84C686.035 331.775 686.101 331.643 685.838 331.38C685.115 330.328 683.405 331.314 684.129 332.366C684.852 333.418 686.43 334.339 687.285 332.826C687.942 331.577 687.942 329.408 687.285 328.224C686.561 326.975 684.852 326.58 683.997 327.961C683.208 329.276 683.405 331.248 683.931 332.629C684.194 333.221 684.786 333.55 685.378 333.221C687.416 332.169 687.811 329.473 686.364 327.764C685.904 327.238 685.181 327.501 684.786 327.961C683.603 329.539 683.537 331.84 684.655 333.484C684.983 333.944 685.772 334.207 686.233 333.681C687.416 332.169 688.665 328.619 686.298 327.501C685.246 327.041 684.326 327.698 683.997 328.684C683.537 329.933 683.537 331.314 684.063 332.498C684.589 333.681 686.496 333.221 685.97 332.037Z" fill="#161616"/>
<path d="M664.93 320.992C661.511 318.756 657.04 319.808 654.87 323.161C654.213 324.213 655.922 325.199 656.58 324.147C658.158 321.649 661.445 321.057 663.944 322.635C664.996 323.358 665.982 321.649 664.93 320.992Z" fill="#161616"/>
<path d="M683.077 321.517C686.101 318.953 690.77 319.742 692.15 323.621C692.545 324.805 694.452 324.279 694.057 323.095C692.15 317.77 685.838 316.52 681.696 320.137C680.776 320.926 682.156 322.306 683.077 321.517Z" fill="#161616"/>
<path d="M685.509 377.997C686.561 381.876 688.6 385.361 691.559 388.122C692.479 388.977 693.86 387.596 692.939 386.741C690.244 384.177 688.337 381.087 687.416 377.471C687.022 376.221 685.115 376.747 685.509 377.997Z" fill="#161616"/>
<path d="M703.656 365.833C704.248 370.238 705.76 374.249 708.325 377.931C709.048 378.983 710.757 377.997 710.034 376.945C707.667 373.591 706.155 369.909 705.629 365.833C705.497 364.649 703.525 364.584 703.656 365.833Z" fill="#161616"/>
<path d="M691.69 388.451C698.791 390.884 706.944 385.164 709.574 378.654C710.034 377.471 708.128 376.945 707.667 378.128C705.432 383.651 698.134 388.583 692.216 386.544C691.033 386.15 690.507 388.057 691.69 388.451Z" fill="#161616"/>
<path d="M686.693 379.049C691.427 378.26 695.635 376.024 698.988 372.605C699.843 371.685 698.462 370.304 697.607 371.224C694.451 374.446 690.572 376.419 686.167 377.208C684.918 377.405 685.444 379.246 686.693 379.049Z" fill="#161616"/>
<path d="M687.811 380.364C693.334 378.786 699.58 374.446 702.078 369.186C702.604 368.069 700.895 367.017 700.369 368.2C698.068 373 692.347 377.076 687.219 378.523C686.035 378.852 686.561 380.693 687.811 380.364Z" fill="#161616"/>
<path d="M646.388 316.126C642.64 311.721 644.153 303.831 645.994 298.834C648.229 292.719 652.634 288.117 659.012 286.341C664.601 284.763 670.584 284.961 676.041 282.857C682.09 280.49 686.496 273.98 693.465 274.441C694.714 274.506 694.714 272.534 693.465 272.468C685.509 271.942 680.644 279.569 673.477 281.607C666.573 283.646 658.881 282.922 652.634 286.933C647.703 290.089 644.613 295.415 643.232 301.004C641.851 306.329 641.128 313.102 644.942 317.507C645.796 318.493 647.243 317.112 646.388 316.126Z" fill="#5222D0"/>
<path d="M667.428 308.696C666.902 303.896 667.954 299.162 670.781 295.217C673.937 290.812 678.737 288.84 683.471 286.604C687.416 284.763 691.032 282.462 693.86 279.109C696.621 275.953 698.002 271.284 701.487 268.852C701.026 268.72 700.566 268.589 700.106 268.523C703.393 276.216 709.968 285.618 704.051 293.771C703.328 294.823 705.037 295.809 705.76 294.757C712.138 285.947 705.366 275.887 701.815 267.537C701.618 267.076 700.895 266.879 700.435 267.208C696.621 269.772 695.306 274.375 692.347 277.728C688.468 282.265 683.405 284.303 678.211 286.801C669.664 290.944 664.206 298.965 665.324 308.696C665.587 309.945 667.625 309.945 667.428 308.696Z" fill="#5222D0"/>
<path d="M686.035 307.776C690.243 299.952 697.147 293.837 705.563 290.878C709.508 289.497 713.65 288.708 717.398 286.802C721.014 285.026 724.105 282.528 726.801 279.569C726.275 279.503 725.749 279.438 725.223 279.372C727.655 284.566 729.957 290.418 730.417 296.138C730.877 302.319 727.458 307.053 723.71 311.589C722.921 312.576 724.302 313.956 725.091 312.97C728.839 308.368 732.521 303.502 732.389 297.322C732.258 290.812 729.562 284.172 726.866 278.386C726.603 277.794 725.748 277.728 725.288 278.188C721.869 281.87 717.793 284.763 713.059 286.473C709.048 287.919 704.84 288.708 700.961 290.615C693.794 294.1 687.942 299.82 684.194 306.79C683.734 307.907 685.444 308.894 686.035 307.776Z" fill="#5222D0"/>
<path d="M727.458 308.17C732.192 317.375 731.337 328.29 725.288 336.64C724.565 337.692 726.275 338.678 726.998 337.626C733.507 328.684 734.23 316.981 729.168 307.184C728.576 306.066 726.866 307.052 727.458 308.17Z" fill="#5222D0"/>
<path opacity="0.14" d="M702.999 318.822C703.196 322.044 703.328 326.712 702.999 332.301C702.341 342.295 701.815 350.908 697.41 358.995C691.887 369.055 682.419 374.315 676.107 376.945C679.132 377.142 683.997 377.01 689.586 375.169C694.188 373.657 697.673 371.488 699.909 369.778C701.158 374.709 702.473 379.641 703.722 384.572C705.695 382.205 707.601 379.772 709.574 377.405C707.864 373.986 706.155 370.501 704.445 367.082C705.826 364.847 707.141 362.48 708.456 359.916C710.823 355.445 712.73 351.171 714.308 347.094C715.163 347.423 717.661 348.278 719.897 347.094C722.395 345.779 722.987 342.821 723.513 340.125C724.039 337.298 725.485 329.736 721.014 326.449C719.173 325.068 715.952 324.148 713.387 325.528C712.007 326.317 711.283 327.501 710.889 328.224C710.56 325.528 710.297 322.833 709.968 320.137C707.667 319.742 705.3 319.282 702.999 318.822Z" fill="#666666"/>
<path opacity="0.2" d="M687.942 307.644C691.624 303.633 696.029 297.913 699.843 290.352C702.539 284.96 704.314 279.963 705.432 275.755C708.39 281.081 708.127 285.355 707.93 287.196C706.812 295.612 699.185 300.872 694.912 303.831C692.216 305.672 689.717 306.855 687.942 307.644Z" fill="#212121"/>
<path opacity="0.16" d="M701.421 315.008C705.169 313.693 709.574 311.786 714.242 308.959C722.724 303.765 728.444 297.584 731.995 293.048C732.455 295.809 732.915 301.266 729.956 306.263C725.222 314.416 713.585 318.361 701.421 315.008Z" fill="#212121"/>
<path opacity="0.22" d="M658.355 311.458C658.223 308.696 658.42 304.751 659.67 300.214C662.628 289.826 669.992 282.067 671.11 282.725C672.031 283.251 669.795 289.431 658.355 311.458Z" fill="#212121"/>
<path d="M661.576 353.801C671.373 354.261 680.907 352.288 689.717 347.949C690.572 347.554 689.849 346.239 688.994 346.7C680.447 350.908 671.11 352.815 661.642 352.354C660.59 352.289 660.656 353.735 661.576 353.801Z" fill="#161616"/>
<path d="M662.563 354.064C663.878 356.431 664.798 358.995 665.324 361.625C665.522 362.545 666.902 362.151 666.771 361.23C666.245 358.469 665.259 355.773 663.878 353.275C663.418 352.486 662.103 353.275 662.563 354.064Z" fill="#161616"/>
<path d="M665.456 361.691C669.401 365.504 675.778 363.597 679.986 361.165C685.049 358.337 688.731 353.603 689.98 347.949C690.178 347.028 688.731 346.634 688.534 347.554C687.482 352.223 684.786 356.168 680.841 358.929C677.093 361.493 670.321 364.386 666.508 360.639C665.85 359.981 664.798 361.033 665.456 361.691Z" fill="#161616"/>
<path d="M664.535 356.759C669.006 357.943 674.135 356.628 678.408 355.313C682.551 354.064 686.364 352.025 689.257 348.738C689.915 348.015 688.863 346.963 688.205 347.686C685.444 350.776 681.959 352.683 678.014 353.866C674.003 355.05 669.072 356.431 664.93 355.313C664.009 355.116 663.615 356.562 664.535 356.759Z" fill="#161616"/>
<path d="M665.193 357.483C665.719 358.732 666.245 359.981 666.771 361.23C667.099 362.019 668.414 361.428 668.151 360.639C667.691 359.455 667.362 358.337 667.099 357.088C666.771 357.417 666.508 357.68 666.179 358.009C667.757 358.272 669.335 358.403 670.979 358.403C671.768 358.403 672.031 357.088 671.176 356.957C669.664 356.694 668.48 356.759 666.968 357.22C666.508 357.351 666.245 357.877 666.508 358.337C666.902 358.929 667.362 359.587 667.757 360.178C668.283 360.967 669.466 360.31 669.006 359.455C668.809 358.863 668.612 358.272 668.414 357.746C667.954 357.943 667.494 358.14 667.034 358.337C667.691 359.192 667.954 360.113 667.691 361.099C668.151 360.967 668.612 360.836 669.072 360.704C668.151 359.192 667.362 360.967 667.165 361.428C666.968 362.019 667.757 362.677 668.283 362.282C673.674 358.206 679.986 356.168 686.364 354.195C687.285 353.932 686.89 352.486 685.97 352.749C679.46 354.721 673.017 356.825 667.56 360.967C667.954 361.23 668.283 361.493 668.677 361.822C668.94 361.23 669.729 361.099 669.861 360.178C669.992 359.389 669.664 358.206 668.809 357.943C666.442 357.154 667.297 360.507 667.888 361.428C668.283 362.085 669.203 361.756 669.269 361.033C669.401 359.652 669.138 358.666 668.414 357.548C667.954 356.891 666.836 357.285 667.034 358.14C667.297 359.258 667.297 359.192 667.757 360.244C668.151 359.981 668.612 359.718 669.006 359.521C668.612 358.929 668.151 358.272 667.757 357.68C667.625 358.074 667.494 358.403 667.297 358.798C668.414 358.337 669.532 358.272 670.716 358.535C670.781 358.074 670.847 357.548 670.913 357.088C669.401 357.088 668.086 357.022 666.508 356.759C665.916 356.628 665.456 357.088 665.587 357.68C665.85 358.929 666.179 360.047 666.639 361.23C667.099 361.033 667.56 360.836 668.02 360.639C667.494 359.389 666.968 358.14 666.442 356.891C666.113 355.839 664.798 356.628 665.193 357.483Z" fill="#161616"/>
<path d="M669.401 359.85C671.702 358.469 674.069 357.417 676.633 356.497C676.436 356.036 676.239 355.576 676.041 355.116C673.74 356.168 671.439 357.22 669.203 358.206C668.48 358.535 669.006 359.85 669.795 359.587C675.976 357.154 682.09 354.656 687.679 350.974C687.285 350.711 686.956 350.448 686.561 350.119C685.707 352.42 681.893 352.683 679.921 353.406C678.277 353.998 676.699 354.787 675.055 355.379C672.754 356.168 670.058 356.036 668.283 358.009C667.625 358.732 668.677 359.784 669.335 359.061C670.781 357.417 673.477 357.483 675.45 356.825C677.422 356.168 679.329 355.182 681.367 354.524C684.129 353.669 686.89 353.604 688.008 350.579C688.205 349.987 687.416 349.396 686.89 349.724C681.433 353.275 675.384 355.773 669.335 358.14C669.532 358.601 669.729 359.061 669.927 359.521C672.228 358.469 674.529 357.417 676.765 356.431C677.554 356.102 676.962 354.787 676.173 355.05C673.543 355.971 671.044 357.154 668.612 358.535C667.823 359.061 668.612 360.376 669.401 359.85Z" fill="#161616"/>
<path d="M687.153 352.617C687.153 352.551 687.087 352.486 687.087 352.42C687.087 352.354 687.087 352.42 687.087 352.551C687.022 352.617 686.89 352.749 686.824 352.814H686.89C686.693 352.814 686.496 352.88 686.298 352.88C685.97 352.814 685.97 352.223 685.904 352.617C685.904 352.749 685.904 352.814 685.97 352.946C686.035 353.209 686.167 353.34 686.43 353.538C686.759 353.801 687.285 353.603 687.416 353.275C687.613 352.88 687.482 352.486 687.153 352.288C687.153 352.288 687.087 352.288 687.087 352.223C687.153 352.288 687.285 352.42 687.35 352.486C687.416 352.683 687.416 352.683 687.416 352.551C687.416 352.486 687.416 352.42 687.416 352.42C687.416 352.223 687.35 352.025 687.285 351.894C687.087 351.631 686.824 351.434 686.496 351.434C685.641 351.434 685.509 352.42 685.772 353.012C685.904 353.406 686.233 353.669 686.693 353.538C687.022 353.406 687.35 352.946 687.153 352.617Z" fill="#161616"/>
<path d="M687.285 346.634C688.534 347.16 689.586 348.015 690.309 349.198C690.769 349.987 692.084 349.264 691.558 348.475C690.638 346.963 689.323 345.845 687.679 345.253C686.759 344.859 686.364 346.305 687.285 346.634Z" fill="#161616"/>
<path d="M669.335 362.743C674.529 359.061 680.249 356.497 686.43 355.116C687.35 354.919 686.956 353.472 686.035 353.669C679.658 355.05 673.872 357.68 668.546 361.428C667.823 362.02 668.546 363.335 669.335 362.743Z" fill="#161616"/>
<path d="M668.02 361.559C674.463 361.23 680.447 359.258 685.772 355.642C686.561 355.116 685.838 353.801 685.049 354.392C679.921 357.877 674.2 359.85 668.02 360.113C667.034 360.178 667.034 361.625 668.02 361.559Z" fill="#161616"/>
<path d="M674.003 359.915C677.619 359.126 680.973 357.746 684.129 355.773C684.918 355.247 684.194 353.998 683.405 354.524C680.381 356.431 677.159 357.746 673.674 358.535C672.688 358.666 673.083 360.113 674.003 359.915Z" fill="#161616"/>
<path d="M669.466 362.48C674.726 362.348 679.592 360.836 683.931 357.877C684.72 357.351 683.997 356.036 683.208 356.628C679.066 359.455 674.463 360.902 669.466 361.033C668.546 361.033 668.546 362.545 669.466 362.48Z" fill="#161616"/>
<path d="M669.466 362.348C669.401 363.466 670.453 363.597 671.307 363.466C673.28 363.203 675.187 362.743 677.093 362.282C678.014 362.019 677.619 360.639 676.699 360.836C675.713 361.099 674.726 361.296 673.674 361.493C673.214 361.559 670.979 361.691 670.913 362.282C671.044 361.428 669.532 361.428 669.466 362.348Z" fill="#161616"/>
<path d="M682.025 370.041C682.682 368.2 688.6 368.594 693.728 369.252C693.728 368.266 693.926 366.819 694.517 365.241C694.978 363.992 695.701 362.743 698.331 359.85C701.158 356.759 702.605 355.247 704.446 354.129C705.826 353.275 708.128 352.157 711.349 351.631C712.664 352.091 714.045 352.551 715.36 352.946C715.754 351.697 716.543 349.33 718.056 344.727C719.042 341.637 719.634 340.059 720.949 339.533C722.264 339.073 724.039 339.533 724.959 340.651C726.274 342.294 725.091 344.661 724.368 348.672C723.973 350.973 724.302 350.579 724.17 359.192C724.039 368.003 723.71 367.937 723.776 371.619C723.842 375.038 724.302 379.903 725.88 385.755C727.326 385.098 729.628 384.374 732.389 384.44C738.833 384.506 743.369 388.714 746.723 391.936C753.298 398.182 756.125 405.086 758.032 409.951C761.714 419.353 762.174 427.178 762.24 430.597C762.305 435.922 762.437 440.919 759.741 446.705C758.886 448.546 756.519 453.478 751.128 457.225C748.892 458.803 744.684 461.696 739.227 461.236C736.071 460.973 733.244 459.658 730.219 457.225C720.094 449.007 715.426 434.081 713.979 428.887C711.218 419.419 708.193 405.677 707.667 388.517C706.221 388.451 704.511 388.122 702.67 387.399C695.898 384.572 693.268 377.799 692.742 376.09C691.361 376.156 686.43 376.09 683.34 372.671C682.682 371.882 681.762 370.896 682.025 370.041Z" fill="white"/>
<path d="M691.164 374.643C687.679 374.38 683.669 373.065 682.748 369.252C682.551 369.646 682.288 370.041 682.091 370.435C687.153 369.383 692.216 370.896 697.279 370.172C698.528 369.975 698.002 368.068 696.753 368.266C691.69 368.989 686.627 367.477 681.565 368.529C681.039 368.66 680.776 369.252 680.907 369.712C682.025 374.446 686.825 376.221 691.23 376.55C692.479 376.682 692.479 374.709 691.164 374.643Z" fill="#161616"/>
<path d="M694.912 367.608C694.123 362.94 701.289 363.203 703.985 363.926C705.234 364.255 705.76 362.348 704.511 362.019C700.106 360.836 691.953 361.691 693.005 368.068C693.202 369.383 695.109 368.857 694.912 367.608Z" fill="#161616"/>
<path d="M697.739 363.071C698.331 360.77 699.58 358.666 701.816 357.614C704.446 356.431 707.076 357.614 709.508 358.666C710.626 359.192 711.678 357.483 710.495 356.957C707.47 355.576 704.248 354.261 701.027 355.773C698.265 357.022 696.556 359.652 695.832 362.545C695.569 363.795 697.476 364.321 697.739 363.071Z" fill="#161616"/>
<path d="M704.643 355.181C704.511 355.05 706.747 353.209 707.076 353.012C707.996 352.551 709.048 352.288 710.1 352.288C712.664 352.288 714.966 353.538 717.004 354.853C718.056 355.51 719.042 353.866 717.99 353.143C714.703 351.039 710.692 349.395 706.813 350.973C705.169 351.631 701.224 354.59 703.196 356.628C704.117 357.483 705.498 356.102 704.643 355.181Z" fill="#161616"/>
<path d="M724.171 371.816C724.96 366.227 725.223 360.704 724.828 355.05C724.631 351.828 724.96 349.33 725.749 346.174C726.143 344.53 726.472 342.82 726.012 341.177C725.288 338.941 722.79 337.1 720.423 338.284C718.911 339.073 718.516 340.848 717.99 342.36C717.004 345.187 716.083 348.08 715.163 350.908C714.768 352.091 716.675 352.617 717.07 351.434C717.596 349.79 718.122 348.146 718.713 346.568C719.042 345.582 719.568 342.294 720.357 341.703C723.645 341.308 724.96 342.229 724.171 344.596C723.973 345.385 723.776 346.108 723.513 346.897C723.184 348.146 722.856 349.33 722.724 350.579C722.461 353.735 723.053 357.022 723.053 360.244C723.053 363.992 722.79 367.674 722.264 371.356C722.132 372.539 724.039 373.065 724.171 371.816Z" fill="#161616"/>
<path d="M690.112 376.747C693.531 377.01 694.386 380.561 695.964 382.928C696.753 384.177 697.739 385.295 698.923 386.215C701.224 388.056 703.92 389.043 706.878 389.306C708.128 389.437 708.128 387.465 706.878 387.333C701.881 386.873 698.725 383.98 696.424 379.772C694.978 377.142 693.268 375.038 690.112 374.841C688.797 374.709 688.863 376.682 690.112 376.747Z" fill="#161616"/>
<path d="M706.55 388.451C708.588 395.486 708.785 402.719 709.377 409.951C709.903 416.066 710.889 422.181 712.599 428.032C715.952 439.341 721.738 449.796 730.088 458.212C731.009 459.132 732.389 457.686 731.469 456.831C722.856 448.152 717.004 437.237 713.914 425.468C710.626 413.107 712.007 400.154 708.456 387.925C708.062 386.741 706.155 387.267 706.55 388.451Z" fill="#161616"/>
<path d="M722.264 371.027C723.25 382.007 726.472 392.725 731.863 402.324C737.123 411.661 745.211 419.748 747.052 430.662C747.249 431.912 749.156 431.386 748.958 430.136C747.315 420.208 740.542 412.647 735.348 404.362C729.102 394.303 725.354 382.862 724.236 371.093C724.105 369.778 722.132 369.778 722.264 371.027Z" fill="#161616"/>
<path d="M726.8 386.281C736.597 383.125 746.263 391.015 751.391 398.642C756.783 406.664 759.215 416.526 760.333 426.06C761.385 435.396 760.662 445.588 754.415 453.083C748.629 460.053 737.912 462.814 730.614 456.502C729.628 455.647 728.247 457.094 729.233 457.883C736.137 463.866 746.328 463.011 753.1 457.225C761.385 450.19 763.423 438.75 762.569 428.427C761.648 417.184 758.821 405.151 751.983 395.946C746.262 388.319 736.268 381.153 726.34 384.309C725.091 384.769 725.551 386.676 726.8 386.281Z" fill="#161616"/>
<path opacity="0.15" d="M722.527 341.834C719.042 343.149 719.305 352.091 719.568 358.535C720.489 377.668 720.949 387.268 724.696 401.996C730.088 422.97 735.019 428.427 737.715 430.991C741.594 434.673 749.024 439.999 752.18 437.895C757.177 434.542 749.221 414.554 747.249 409.688C740.608 393.119 739.161 387.596 734.23 385.887C731.271 384.901 728.378 385.295 726.34 385.887C723.513 379.838 723.053 374.972 723.119 371.619C723.184 368.792 723.645 368.792 723.842 364.518C724.236 356.76 722.856 356.299 723.579 351.237C724.302 346.305 726.209 343.347 724.828 342.163C724.368 341.506 723.25 341.571 722.527 341.834Z" fill="#666666"/>
<path opacity="0.15" d="M728.181 389.24C732.849 393.776 736.071 398.116 738.241 401.535C743.567 409.754 745.802 417.118 746.591 419.945C747.709 423.956 748.235 427.441 748.564 430.005C747.446 426.586 745.342 421.457 741.66 415.737C738.701 411.134 736.794 409.556 734.296 405.414C732.258 401.995 729.693 396.735 728.181 389.24Z" fill="#666666"/>
</svg>
