<svg width="300" height="300" viewBox="0 0 300 300" fill="none" xmlns="http://www.w3.org/2000/svg">
<circle cx="150" cy="150" r="150" fill="#23263A"/>
<circle cx="150" cy="150" r="133.5" stroke="#EEEEEE" stroke-width="7"/>
<path d="M132.719 136.984C132.523 137.648 132.152 138.156 131.605 138.508C131.059 138.82 130.453 138.977 129.789 138.977C128.891 138.977 128.148 138.645 127.562 137.98C126.977 137.316 126.684 136.652 126.684 135.988C126.684 135.676 126.762 135.363 126.918 135.051L130.668 124.094C129.691 122.531 128.5 121.047 127.094 119.641C125.727 118.195 124.223 116.926 122.582 115.832C120.941 114.738 119.203 113.879 117.367 113.254C115.531 112.59 113.676 112.258 111.801 112.258C108.246 112.258 105.062 112.805 102.25 113.898C99.4766 114.992 97.0352 116.477 94.9258 118.352C92.8555 120.227 91.0781 122.434 89.5938 124.973C88.1094 127.473 86.8984 130.148 85.9609 133C85.0625 135.852 84.3984 138.801 83.9688 141.848C83.5781 144.855 83.3828 147.824 83.3828 150.754C83.3828 153.293 83.5195 156.008 83.793 158.898C84.0664 161.75 84.5352 164.621 85.1992 167.512C85.8633 170.363 86.7422 173.117 87.8359 175.773C88.9297 178.391 90.2773 180.715 91.8789 182.746C93.5195 184.777 95.4336 186.398 97.6211 187.609C99.8086 188.82 102.348 189.426 105.238 189.426C108.637 189.426 111.859 188.938 114.906 187.961C117.992 186.984 120.785 185.598 123.285 183.801C125.824 181.965 128.031 179.777 129.906 177.238C131.82 174.699 133.305 171.867 134.359 168.742C134.555 168.039 134.926 167.473 135.473 167.043C136.02 166.574 136.645 166.34 137.348 166.34C138.207 166.34 138.93 166.672 139.516 167.336C140.102 168 140.395 168.723 140.395 169.504V170.207C140.355 170.285 140.219 170.676 139.984 171.379C139.789 172.082 139.438 173 138.93 174.133C138.461 175.227 137.816 176.496 136.996 177.941C136.215 179.348 135.219 180.812 134.008 182.336C132.211 184.562 130.199 186.496 127.973 188.137C125.746 189.777 123.383 191.145 120.883 192.238C118.422 193.332 115.863 194.152 113.207 194.699C110.551 195.246 107.895 195.52 105.238 195.52C98.5586 195.402 92.5625 194.328 87.25 192.297C81.9766 190.227 77.4844 187.355 73.7734 183.684C70.1016 179.973 67.2695 175.52 65.2773 170.324C63.3242 165.129 62.3477 159.328 62.3477 152.922C62.3477 146.984 62.9727 141.691 64.2227 137.043C65.4727 132.395 67.1719 128.332 69.3203 124.855C71.5078 121.34 74.0664 118.371 76.9961 115.949C79.9258 113.488 83.0312 111.496 86.3125 109.973C89.6328 108.449 93.0703 107.355 96.625 106.691C100.18 105.988 103.676 105.637 107.113 105.637C110.551 105.637 113.637 106.008 116.371 106.75C119.105 107.453 121.547 108.371 123.695 109.504C125.844 110.637 127.68 111.887 129.203 113.254C130.766 114.582 132.055 115.852 133.07 117.062L136.293 107.805C136.527 107.141 136.918 106.613 137.465 106.223C138.012 105.832 138.578 105.637 139.164 105.637C140.023 105.637 140.746 105.969 141.332 106.633C141.957 107.258 142.27 107.961 142.27 108.742C142.27 109.094 142.191 109.426 142.035 109.738L132.719 136.984ZM243.812 108.977C243.812 110.07 243.578 110.93 243.109 111.555C242.641 112.141 242.074 112.531 241.41 112.727C239.262 113.156 237.191 113.508 235.199 113.781C233.207 114.055 231.215 114.27 229.223 114.426C229.027 116.184 228.734 119.094 228.344 123.156C227.992 127.18 227.641 132.141 227.289 138.039C226.938 143.898 226.625 150.559 226.352 158.02C226.078 165.48 225.941 173.508 225.941 182.102V187.844C227.895 187.844 229.828 187.902 231.742 188.02C233.656 188.098 235.648 188.234 237.719 188.43C238.617 188.625 239.301 189.035 239.77 189.66C240.238 190.246 240.473 190.969 240.473 191.828C240.395 192.648 240.043 193.312 239.418 193.82C238.832 194.328 238.148 194.582 237.367 194.582H237.133C234.906 194.387 232.719 194.23 230.57 194.113C228.422 193.996 226.293 193.938 224.184 193.938C222.074 193.938 219.984 193.996 217.914 194.113C215.844 194.23 213.812 194.387 211.82 194.582H211.41C210.512 194.582 209.77 194.27 209.184 193.645C208.598 193.02 208.305 192.316 208.305 191.535C208.305 190.754 208.559 190.07 209.066 189.484C209.613 188.898 210.277 188.547 211.059 188.43C212.543 188.312 214.008 188.215 215.453 188.137C216.898 188.02 218.363 187.922 219.848 187.844V182.102C219.848 173.547 219.965 165.539 220.199 158.078C216.996 158.391 213.793 158.605 210.59 158.723C207.387 158.84 204.184 158.898 200.98 158.898C197.738 158.898 194.555 158.84 191.43 158.723C188.344 158.605 185.297 158.391 182.289 158.078L181.586 187.727C183.07 187.844 184.574 187.961 186.098 188.078C187.66 188.195 189.223 188.312 190.785 188.43C191.566 188.547 192.211 188.898 192.719 189.484C193.266 190.07 193.539 190.754 193.539 191.535C193.539 192.434 193.207 193.156 192.543 193.703C191.879 194.289 191.176 194.582 190.434 194.582H190.199C187.074 194.27 183.949 194.016 180.824 193.82C177.738 193.664 174.633 193.586 171.508 193.586C168.422 193.586 165.355 193.664 162.309 193.82C159.301 194.016 156.273 194.27 153.227 194.582H152.992C152.094 194.582 151.352 194.27 150.766 193.645C150.18 193.02 149.887 192.316 149.887 191.535C149.887 190.754 150.141 190.07 150.648 189.484C151.195 188.898 151.859 188.547 152.641 188.43C154.086 188.312 155.531 188.195 156.977 188.078C158.461 187.961 159.926 187.844 161.371 187.727L162.719 113.781C159.359 113.547 155.961 113.195 152.523 112.727C151.742 112.609 151.098 112.258 150.59 111.672C150.121 111.086 149.887 110.441 149.887 109.738C149.887 108.723 150.238 107.941 150.941 107.395C151.645 106.848 152.328 106.574 152.992 106.574H153.344C157.484 107.199 161.566 107.648 165.59 107.922C169.613 108.156 173.617 108.273 177.602 108.273C180.023 108.273 182.406 108.234 184.75 108.156C187.094 108.078 189.438 107.922 191.781 107.688H192.016C192.797 107.688 193.48 107.961 194.066 108.508C194.691 109.016 195.043 109.66 195.121 110.441C195.121 111.418 194.828 112.199 194.242 112.785C193.695 113.371 193.031 113.703 192.25 113.781C190.805 113.898 189.359 114.016 187.914 114.133C186.469 114.25 184.984 114.348 183.461 114.426L182.523 151.867C185.414 152.219 188.422 152.473 191.547 152.629C194.672 152.746 197.816 152.805 200.98 152.805C204.262 152.805 207.504 152.746 210.707 152.629C213.949 152.512 217.191 152.297 220.434 151.984C220.59 147.375 220.785 143.098 221.02 139.152C221.293 135.207 221.547 131.652 221.781 128.488C222.055 125.285 222.289 122.531 222.484 120.227C222.719 117.883 222.914 116.027 223.07 114.66C221.508 114.582 219.965 114.484 218.441 114.367C216.957 114.25 215.473 114.055 213.988 113.781C213.246 113.664 212.621 113.332 212.113 112.785C211.645 112.199 211.41 111.535 211.41 110.793C211.41 109.816 211.742 109.055 212.406 108.508C213.109 107.961 213.793 107.688 214.457 107.688H214.926C216.488 108 218.051 108.215 219.613 108.332C221.176 108.449 222.777 108.508 224.418 108.508C226.879 108.508 229.398 108.352 231.977 108.039C234.594 107.727 237.309 107.238 240.121 106.574H240.824C241.566 106.574 242.191 106.809 242.699 107.277C243.246 107.707 243.617 108.273 243.812 108.977Z" fill="#EEEEEE"/>
</svg>
